{
	"asset":{
		"generator":"Khronos glTF Blender I/O v5.0.21",
		"version":"2.0"
	},
	"scene":0,
	"scenes":[
		{
			"name":"Scene",
			"nodes":[
				0,
				1,
				2,
				3,
				4,
				5,
				6,
				7,
				8,
				9,
				10
			]
		}
	],
	"nodes":[
		{
			"camera":0,
			"name":"main Camera",
			"rotation":[
				-0.06276874244213104,
				-0.026471655815839767,
				-0.0016642502741888165,
				0.9976755976676941
			],
			"translation":[
				-0.12044310569763184,
				0.6772205829620361,
				2.016758441925049
			]
		},
		{
			"name":"Area",
			"rotation":[
				-0.02040454000234604,
				0.14612172544002533,
				-0.012334831058979034,
				0.9889792799949646
			],
			"translation":[
				0.17676858603954315,
				0.5873088836669922,
				1.0737642049789429
			]
		},
		{
			"mesh":0,
			"name":"Cylinder",
			"rotation":[
				0.07725870609283447,
				0.3728588819503784,
				0.5723016262054443,
				0.7262769341468811
			],
			"scale":[
				0.06175462529063225,
				0.06954561918973923,
				0.06954562664031982
			],
			"translation":[
				0.1027144193649292,
				0.42363715171813965,
				0.24261707067489624
			]
		},
		{
			"mesh":1,
			"name":"key1",
			"rotation":[
				0.7168577313423157,
				0,
				0,
				0.6972194910049438
			],
			"scale":[
				-0.025295095518231392,
				-0.025295095518231392,
				-0.025295095518231392
			],
			"translation":[
				-0.40381091833114624,
				0.5485388040542603,
				0.8481793403625488
			]
		},
		{
			"mesh":2,
			"name":"key2",
			"rotation":[
				0.7168577313423157,
				0,
				0,
				0.6972194910049438
			],
			"scale":[
				-0.025295095518231392,
				-0.025295095518231392,
				-0.025295095518231392
			],
			"translation":[
				-0.3013637661933899,
				0.5485388040542603,
				0.8481793403625488
			]
		},
		{
			"mesh":3,
			"name":"key3",
			"rotation":[
				0.7168577313423157,
				0,
				0,
				0.6972194910049438
			],
			"scale":[
				-0.025295095518231392,
				-0.025295095518231392,
				-0.025295095518231392
			],
			"translation":[
				-0.20394372940063477,
				0.5485388040542603,
				0.8481793403625488
			]
		},
		{
			"mesh":4,
			"name":"key4",
			"rotation":[
				0.7168577313423157,
				0,
				0,
				0.6972194910049438
			],
			"scale":[
				-0.025295095518231392,
				-0.025295095518231392,
				-0.025295095518231392
			],
			"translation":[
				-0.12200950086116791,
				0.5485388040542603,
				0.8481793403625488
			]
		},
		{
			"mesh":5,
			"name":"key5",
			"rotation":[
				0.7168577313423157,
				0,
				0,
				0.6972194910049438
			],
			"scale":[
				-0.025295095518231392,
				-0.025295095518231392,
				-0.025295095518231392
			],
			"translation":[
				-0.029728852212429047,
				0.5485388040542603,
				0.8481793403625488
			]
		},
		{
			"mesh":6,
			"name":"key6",
			"rotation":[
				0.7168577313423157,
				0,
				0,
				0.6972194910049438
			],
			"scale":[
				-0.025295095518231392,
				-0.025295095518231392,
				-0.025295095518231392
			],
			"translation":[
				0.06205545365810394,
				0.5485388040542603,
				0.8481793403625488
			]
		},
		{
			"mesh":7,
			"name":"key7",
			"rotation":[
				0.7168577313423157,
				0,
				0,
				0.6972194910049438
			],
			"scale":[
				-0.025295095518231392,
				-0.025295095518231392,
				-0.025295095518231392
			],
			"translation":[
				0.15787744522094727,
				0.5485388040542603,
				0.8481793403625488
			]
		},
		{
			"mesh":8,
			"name":"key8",
			"rotation":[
				0.7168577313423157,
				0,
				0,
				0.6972194910049438
			],
			"scale":[
				-0.025295095518231392,
				-0.025295095518231392,
				-0.025295095518231392
			],
			"translation":[
				0.26218944787979126,
				0.5439242124557495,
				0.848051130771637
			]
		}
	],
	"cameras":[
		{
			"name":"Camera",
			"perspective":{
				"aspectRatio":1.7777777777777777,
				"yfov":0.39959652046304894,
				"zfar":1000,
				"znear":0.10000000149011612
			},
			"type":"perspective"
		}
	],
	"animations":[
		{
			"channels":[
				{
					"sampler":0,
					"target":{
						"node":2,
						"path":"translation"
					}
				},
				{
					"sampler":1,
					"target":{
						"node":2,
						"path":"rotation"
					}
				},
				{
					"sampler":2,
					"target":{
						"node":2,
						"path":"scale"
					}
				}
			],
			"name":"dudu",
			"samplers":[
				{
					"input":29,
					"interpolation":"LINEAR",
					"output":30
				},
				{
					"input":29,
					"interpolation":"LINEAR",
					"output":31
				},
				{
					"input":32,
					"interpolation":"STEP",
					"output":33
				}
			]
		}
	],
	"materials":[
		{
			"doubleSided":true,
			"name":"Material.019",
			"pbrMetallicRoughness":{
				"baseColorFactor":[
					0.7230509519577026,
					0.4102913439273834,
					0.061246201395988464,
					1
				],
				"metallicFactor":0,
				"roughnessFactor":0.5
			}
		}
	],
	"meshes":[
		{
			"name":"Cylinder.002",
			"primitives":[
				{
					"attributes":{
						"POSITION":0,
						"NORMAL":1,
						"TEXCOORD_0":2
					},
					"indices":3,
					"material":0
				}
			]
		},
		{
			"name":"Plane",
			"primitives":[
				{
					"attributes":{
						"POSITION":4,
						"NORMAL":5,
						"TEXCOORD_0":6
					},
					"indices":7
				}
			]
		},
		{
			"name":"Plane.001",
			"primitives":[
				{
					"attributes":{
						"POSITION":8,
						"NORMAL":9,
						"TEXCOORD_0":10
					},
					"indices":7
				}
			]
		},
		{
			"name":"Plane.002",
			"primitives":[
				{
					"attributes":{
						"POSITION":11,
						"NORMAL":12,
						"TEXCOORD_0":13
					},
					"indices":7
				}
			]
		},
		{
			"name":"Plane.003",
			"primitives":[
				{
					"attributes":{
						"POSITION":14,
						"NORMAL":15,
						"TEXCOORD_0":16
					},
					"indices":7
				}
			]
		},
		{
			"name":"Plane.004",
			"primitives":[
				{
					"attributes":{
						"POSITION":17,
						"NORMAL":18,
						"TEXCOORD_0":19
					},
					"indices":7
				}
			]
		},
		{
			"name":"Plane.005",
			"primitives":[
				{
					"attributes":{
						"POSITION":20,
						"NORMAL":21,
						"TEXCOORD_0":22
					},
					"indices":7
				}
			]
		},
		{
			"name":"Plane.006",
			"primitives":[
				{
					"attributes":{
						"POSITION":23,
						"NORMAL":24,
						"TEXCOORD_0":25
					},
					"indices":7
				}
			]
		},
		{
			"name":"Plane.007",
			"primitives":[
				{
					"attributes":{
						"POSITION":26,
						"NORMAL":27,
						"TEXCOORD_0":28
					},
					"indices":7
				}
			]
		}
	],
	"accessors":[
		{
			"bufferView":0,
			"componentType":5126,
			"count":1682,
			"max":[
				1.2620495557785034,
				10.854022026062012,
				1.2596641778945923
			],
			"min":[
				-1.257278561592102,
				-12.231910705566406,
				-1.2596635818481445
			],
			"type":"VEC3"
		},
		{
			"bufferView":1,
			"componentType":5126,
			"count":1682,
			"type":"VEC3"
		},
		{
			"bufferView":2,
			"componentType":5126,
			"count":1682,
			"type":"VEC2"
		},
		{
			"bufferView":3,
			"componentType":5123,
			"count":2736,
			"type":"SCALAR"
		},
		{
			"bufferView":4,
			"componentType":5126,
			"count":4,
			"max":[
				1,
				0,
				1
			],
			"min":[
				-1,
				0,
				-1
			],
			"type":"VEC3"
		},
		{
			"bufferView":5,
			"componentType":5126,
			"count":4,
			"type":"VEC3"
		},
		{
			"bufferView":6,
			"componentType":5126,
			"count":4,
			"type":"VEC2"
		},
		{
			"bufferView":7,
			"componentType":5123,
			"count":6,
			"type":"SCALAR"
		},
		{
			"bufferView":8,
			"componentType":5126,
			"count":4,
			"max":[
				1,
				0,
				1
			],
			"min":[
				-1,
				0,
				-1
			],
			"type":"VEC3"
		},
		{
			"bufferView":9,
			"componentType":5126,
			"count":4,
			"type":"VEC3"
		},
		{
			"bufferView":10,
			"componentType":5126,
			"count":4,
			"type":"VEC2"
		},
		{
			"bufferView":11,
			"componentType":5126,
			"count":4,
			"max":[
				1,
				0,
				1
			],
			"min":[
				-1,
				0,
				-1
			],
			"type":"VEC3"
		},
		{
			"bufferView":12,
			"componentType":5126,
			"count":4,
			"type":"VEC3"
		},
		{
			"bufferView":13,
			"componentType":5126,
			"count":4,
			"type":"VEC2"
		},
		{
			"bufferView":14,
			"componentType":5126,
			"count":4,
			"max":[
				1,
				0,
				1
			],
			"min":[
				-1,
				0,
				-1
			],
			"type":"VEC3"
		},
		{
			"bufferView":15,
			"componentType":5126,
			"count":4,
			"type":"VEC3"
		},
		{
			"bufferView":16,
			"componentType":5126,
			"count":4,
			"type":"VEC2"
		},
		{
			"bufferView":17,
			"componentType":5126,
			"count":4,
			"max":[
				1,
				0,
				1
			],
			"min":[
				-1,
				0,
				-1
			],
			"type":"VEC3"
		},
		{
			"bufferView":18,
			"componentType":5126,
			"count":4,
			"type":"VEC3"
		},
		{
			"bufferView":19,
			"componentType":5126,
			"count":4,
			"type":"VEC2"
		},
		{
			"bufferView":20,
			"componentType":5126,
			"count":4,
			"max":[
				1,
				0,
				1
			],
			"min":[
				-1,
				0,
				-1
			],
			"type":"VEC3"
		},
		{
			"bufferView":21,
			"componentType":5126,
			"count":4,
			"type":"VEC3"
		},
		{
			"bufferView":22,
			"componentType":5126,
			"count":4,
			"type":"VEC2"
		},
		{
			"bufferView":23,
			"componentType":5126,
			"count":4,
			"max":[
				1,
				0,
				1
			],
			"min":[
				-1,
				0,
				-1
			],
			"type":"VEC3"
		},
		{
			"bufferView":24,
			"componentType":5126,
			"count":4,
			"type":"VEC3"
		},
		{
			"bufferView":25,
			"componentType":5126,
			"count":4,
			"type":"VEC2"
		},
		{
			"bufferView":26,
			"componentType":5126,
			"count":4,
			"max":[
				1,
				0,
				1
			],
			"min":[
				-1,
				0,
				-1
			],
			"type":"VEC3"
		},
		{
			"bufferView":27,
			"componentType":5126,
			"count":4,
			"type":"VEC3"
		},
		{
			"bufferView":28,
			"componentType":5126,
			"count":4,
			"type":"VEC2"
		},
		{
			"bufferView":29,
			"componentType":5126,
			"count":37,
			"max":[
				1.5
			],
			"min":[
				0
			],
			"type":"SCALAR"
		},
		{
			"bufferView":30,
			"componentType":5126,
			"count":37,
			"type":"VEC3"
		},
		{
			"bufferView":31,
			"componentType":5126,
			"count":37,
			"type":"VEC4"
		},
		{
			"bufferView":32,
			"componentType":5126,
			"count":2,
			"max":[
				1.5
			],
			"min":[
				0
			],
			"type":"SCALAR"
		},
		{
			"bufferView":33,
			"componentType":5126,
			"count":2,
			"type":"VEC3"
		}
	],
	"bufferViews":[
		{
			"buffer":0,
			"byteLength":20184,
			"byteOffset":0,
			"target":34962
		},
		{
			"buffer":0,
			"byteLength":20184,
			"byteOffset":20184,
			"target":34962
		},
		{
			"buffer":0,
			"byteLength":13456,
			"byteOffset":40368,
			"target":34962
		},
		{
			"buffer":0,
			"byteLength":5472,
			"byteOffset":53824,
			"target":34963
		},
		{
			"buffer":0,
			"byteLength":48,
			"byteOffset":59296,
			"target":34962
		},
		{
			"buffer":0,
			"byteLength":48,
			"byteOffset":59344,
			"target":34962
		},
		{
			"buffer":0,
			"byteLength":32,
			"byteOffset":59392,
			"target":34962
		},
		{
			"buffer":0,
			"byteLength":12,
			"byteOffset":59424,
			"target":34963
		},
		{
			"buffer":0,
			"byteLength":48,
			"byteOffset":59436,
			"target":34962
		},
		{
			"buffer":0,
			"byteLength":48,
			"byteOffset":59484,
			"target":34962
		},
		{
			"buffer":0,
			"byteLength":32,
			"byteOffset":59532,
			"target":34962
		},
		{
			"buffer":0,
			"byteLength":48,
			"byteOffset":59564,
			"target":34962
		},
		{
			"buffer":0,
			"byteLength":48,
			"byteOffset":59612,
			"target":34962
		},
		{
			"buffer":0,
			"byteLength":32,
			"byteOffset":59660,
			"target":34962
		},
		{
			"buffer":0,
			"byteLength":48,
			"byteOffset":59692,
			"target":34962
		},
		{
			"buffer":0,
			"byteLength":48,
			"byteOffset":59740,
			"target":34962
		},
		{
			"buffer":0,
			"byteLength":32,
			"byteOffset":59788,
			"target":34962
		},
		{
			"buffer":0,
			"byteLength":48,
			"byteOffset":59820,
			"target":34962
		},
		{
			"buffer":0,
			"byteLength":48,
			"byteOffset":59868,
			"target":34962
		},
		{
			"buffer":0,
			"byteLength":32,
			"byteOffset":59916,
			"target":34962
		},
		{
			"buffer":0,
			"byteLength":48,
			"byteOffset":59948,
			"target":34962
		},
		{
			"buffer":0,
			"byteLength":48,
			"byteOffset":59996,
			"target":34962
		},
		{
			"buffer":0,
			"byteLength":32,
			"byteOffset":60044,
			"target":34962
		},
		{
			"buffer":0,
			"byteLength":48,
			"byteOffset":60076,
			"target":34962
		},
		{
			"buffer":0,
			"byteLength":48,
			"byteOffset":60124,
			"target":34962
		},
		{
			"buffer":0,
			"byteLength":32,
			"byteOffset":60172,
			"target":34962
		},
		{
			"buffer":0,
			"byteLength":48,
			"byteOffset":60204,
			"target":34962
		},
		{
			"buffer":0,
			"byteLength":48,
			"byteOffset":60252,
			"target":34962
		},
		{
			"buffer":0,
			"byteLength":32,
			"byteOffset":60300,
			"target":34962
		},
		{
			"buffer":0,
			"byteLength":148,
			"byteOffset":60332
		},
		{
			"buffer":0,
			"byteLength":444,
			"byteOffset":60480
		},
		{
			"buffer":0,
			"byteLength":592,
			"byteOffset":60924
		},
		{
			"buffer":0,
			"byteLength":8,
			"byteOffset":61516
		},
		{
			"buffer":0,
			"byteLength":24,
			"byteOffset":61524
		}
	],
	"buffers":[
		{
			"byteLength":61548,
			"uri":"dudu.bin"
		}
	]
}
