<svg xmlns="http://www.w3.org/2000/svg" viewBox="0 0 120 360" width="120" height="360">
  <!--
    Упрощённый "скрипичный ключ" как одна незамкнутая линия.
    Мы специально держим один <path>, чтобы его легко было выбирать и сэмплировать.
  -->
  <path
    d="
      M 70 330
      C 40 315, 30 290, 44 270
      C 60 246, 95 250, 92 278
      C 89 305, 55 310, 46 284
      C 35 252, 62 220, 80 198
      C 108 164, 110 126, 90 96
      C 70 66, 38 66, 30 98
      C 22 130, 44 156, 72 150
      C 98 144, 104 108, 88 82
      C 72 56, 40 42, 44 20
      C 48 -2, 82 6, 80 30
      C 78 54, 60 74, 54 96
      C 42 140, 64 182, 74 226
      C 82 262, 74 292, 58 316
    "
    fill="none"
    stroke="black"
    stroke-width="6"
    stroke-linecap="round"
    stroke-linejoin="round"
  />
</svg>


