<?xml version="1.0" encoding="UTF-8" standalone="no"?>
<!-- Created with Inkscape (http://www.inkscape.org/) -->

<svg
   width="210mm"
   height="297mm"
   viewBox="0 0 210 297"
   version="1.1"
   id="svg1"
   inkscape:version="1.4.3 (fcd0343856, 2026-01-01)"
   sodipodi:docname="k.svg"
   xmlns:inkscape="http://www.inkscape.org/namespaces/inkscape"
   xmlns:sodipodi="http://sodipodi.sourceforge.net/DTD/sodipodi-0.dtd"
   xmlns="http://www.w3.org/2000/svg"
   xmlns:svg="http://www.w3.org/2000/svg">
  <sodipodi:namedview
     id="namedview1"
     pagecolor="#ffffff"
     bordercolor="#000000"
     borderopacity="0.25"
     inkscape:showpageshadow="2"
     inkscape:pageopacity="0.0"
     inkscape:pagecheckerboard="0"
     inkscape:deskcolor="#d1d1d1"
     inkscape:document-units="mm"
     inkscape:zoom="1.036062"
     inkscape:cx="396.6944"
     inkscape:cy="561.25984"
     inkscape:window-width="2494"
     inkscape:window-height="1371"
     inkscape:window-x="0"
     inkscape:window-y="0"
     inkscape:window-maximized="1"
     inkscape:current-layer="layer1" />
  <defs
     id="defs1" />
  <g
     inkscape:label="Layer 1"
     inkscape:groupmode="layer"
     id="layer1">
    <path
       style="fill:none;stroke:#000000;stroke-width:0.264583;stroke-opacity:1"
       d="m 24.260533,62.311263 c 0.02761,3.13199 0.569622,6.306357 0.255374,9.44884 -0.03492,0.349237 -0.228455,0.671552 -0.255374,1.021495 -0.156302,2.031929 0.119689,4.094261 0,6.128978 -0.120738,2.052537 -0.382876,4.083026 -0.510748,6.128975 -0.174212,2.787388 0.277818,5.649158 0,8.427344 -0.279529,2.795286 -1.021496,5.910442 -1.021496,8.682715 0,3.58681 0.107675,-1.11677 -0.255374,1.78762 -0.121711,0.97368 0.19289,2.10003 0,3.06449 -0.02361,0.11805 -0.231765,0.13733 -0.255374,0.25537 -0.227863,1.13932 0.164373,2.42463 0,3.57524 -0.02692,0.18843 -0.224082,0.32299 -0.255374,0.51075 -0.09229,0.55376 0,3.2205 0,3.31986 0,0.0596 -0.390035,1.53224 -0.255374,1.53224 0.08512,0 0,-0.17025 0,-0.25537 0,-1.02626 0,-0.50598 0,-1.53225 0,-1.02149 0,-2.04299 0,-3.06448 0,-3.35021 0.363386,-7.17979 1.021496,-10.47034 0.202569,-1.012848 0.477416,-1.798644 0.766122,-2.809112 0.386579,-1.353026 0.332493,-3.170698 0.510748,-4.596733 0.104807,-0.838459 -0.08412,-1.712576 0,-2.55374 0.231562,-2.315622 0.460235,-4.650057 1.021496,-6.8951 0.210546,-0.842184 0.146962,-1.765535 0.510748,-2.553739 0.336531,-0.72915 0.94034,-1.313842 1.276871,-2.042994 0.181893,-0.394102 0.118113,-0.865092 0.255373,-1.276868 0.283258,-0.849776 0.927294,-1.993435 1.276869,-2.809116 1.207476,-2.817445 5.911615,-7.818009 8.938093,-8.682717 0.245547,-0.07016 0.516829,0.0554 0.766122,0 2.29665,-0.510366 4.504823,-1.532245 6.895098,-1.532245 1.988745,0 2.394735,0.07817 4.34136,0.510749 3.347619,0.743916 4.010136,0.750118 6.128975,3.575238 0.288922,0.385228 0.754387,0.620832 1.021498,1.021496 0.14547,0.218207 0.103613,1.125111 0.255373,1.276868 0.06019,0.06019 0.19518,-0.06019 0.255373,0 0.127688,0.127688 -0.127685,0.638437 0,0.766122 0.06019,0.06019 0.3405,0 0.255376,0 -0.876856,0 -0.434584,-0.485359 -1.276871,-0.766122 -0.380101,-0.126698 -0.315275,-0.375176 -0.510749,-0.766122 -0.531403,-1.062805 0.01762,0.273005 -0.510747,-0.255373 -0.120385,-0.120383 0.05384,-0.349234 0,-0.510747 -0.616595,-1.849781 0.07363,0.402625 -0.510749,-0.766122 -0.314486,-0.628975 0.741283,0.230534 -0.255373,-0.766122 -0.06019,-0.06019 -0.179237,0.03807 -0.255376,0 -1.062805,-0.531405 0.273005,0.01762 -0.255373,-0.510749 -0.134594,-0.134594 -0.376153,-0.12078 -0.510749,-0.255373 -0.06019,-0.06019 0.03807,-0.179237 0,-0.255376 -0.01379,-0.02757 -1.240488,-1.003305 -1.276869,-1.021495 -1.879597,-0.939798 -8.088801,-1.375858 -10.214961,-1.021496 -2.043589,0.340598 -4.102436,0.724919 -5.873602,1.787618 -0.177035,0.106219 -3.132778,2.783858 -3.319862,3.064489 -0.105585,0.158376 -0.120782,0.376152 -0.255376,0.510746 -0.06019,0.06019 -0.19518,-0.06019 -0.255373,0 -0.688941,0.688943 -0.865336,1.631458 -1.532245,2.298366 -0.06019,0.06019 -0.208155,-0.07083 -0.255373,0 -0.476324,0.714487 -0.02133,0.689555 -0.510749,1.276872 -1.127315,1.352777 -1.587695,1.661631 -2.298366,3.319862 -0.06706,0.156485 0.04129,0.345583 0,0.510749 -0.168434,0.673735 -0.629807,1.361408 -0.766123,2.04299 -0.05008,0.250415 0.05008,0.515708 0,0.766123 -0.03733,0.186647 -0.170248,0.3405 -0.255373,0.510749 -0.08513,0.340497 -0.197674,0.675293 -0.255374,1.021495 -0.09299,0.557916 -0.07972,1.260658 -0.255374,1.787618 -0.03807,0.114207 -0.217305,0.141168 -0.255374,0.255375 -0.134594,0.403781 0.103229,0.863955 0,1.276869 -0.01995,0.07979 -0.464409,0.301715 -0.255374,0.510749 0.515086,0.515086 1.621159,-0.880885 2.042992,-1.021495 0.383061,-0.127688 0.446905,0.06384 0.766122,0 0.344162,-0.06883 0.675293,-0.197676 1.021495,-0.255376 0.61812,-0.103018 1.418172,0 2.042994,0 0.7151,0 2.099344,-0.236588 2.809113,0 0.728509,0.242837 1.595477,0.276452 2.298366,0.510749 0.114208,0.03807 0.147701,0.201536 0.255376,0.255373 0.554292,0.277146 1.221314,0.259059 1.787618,0.510749 0.857731,0.381214 1.71967,0.859835 2.553739,1.276871 0.508387,0.254191 0.825328,0.915636 1.276872,1.276869 0.559408,0.447527 1.228209,0.829342 1.787617,1.276871 0.701829,0.561462 2.239518,3.143319 2.55374,4.085984 0.99641,2.989231 1.051118,3.456752 0.255373,6.639723 -0.138776,0.55512 -1.038656,1.4303 -1.276868,1.78762 -0.944968,1.41745 -1.641518,3.06408 -2.298367,4.59673 -0.292904,0.68344 -0.78182,1.18843 -1.021495,1.78762 -0.841955,0.30183 -0.118116,0.86509 -0.255376,1.27687 -0.109321,0.32796 -0.581808,1.20581 -0.255373,1.53225 0.125941,0.12594 2.940804,1.43747 3.319862,1.53224 1.416777,0.35419 3.942069,0.53953 5.362855,0.25537 0.476176,-0.0952 1.066908,-0.43319 1.532244,-0.51074 0.980149,-0.16336 1.584339,-0.12299 2.55374,-0.51075 0.556334,0.0954 0.08512,-0.42563 0.255373,-0.51075 0.152276,-0.0761 0.358474,0.0761 0.510749,0 0.380691,-0.19035 0.66057,-0.54054 1.021496,-0.76612 1.638535,-1.02409 3.468946,-1.78503 5.107482,-2.80912 1.160918,-0.72557 1.439013,-1.43135 2.55374,-2.29836 0.300498,-0.23372 0.716944,-0.28234 1.021495,-0.51075 0.976008,-0.73201 1.775682,-1.90138 2.55374,-2.80912 2.077508,-2.42376 3.849497,-5.438389 4.596733,-8.42734 0.215786,-0.863145 0.841491,-1.572733 1.276871,-2.298366 0.192577,-0.320964 0.335587,-0.92655 0.510747,-1.276869 0.07614,-0.152275 0,-0.680998 0,-0.510749 0,1.108655 0.106354,0.208629 -1.021496,1.787618 -0.976844,1.367583 -1.78096,3.555262 -2.298366,5.107482 -0.09706,0.291171 -0.426429,0.471009 -0.510747,0.766122 -0.14225,0.497869 -0.129791,1.029909 -0.255376,1.532245 -0.134672,0.538687 -0.579368,1.065357 -0.766122,1.532237 -1.184328,2.96083 0.175207,-0.19007 -0.255373,1.53225 -0.09233,0.36932 -0.418417,0.65217 -0.510749,1.0215 -0.229597,0.91839 -0.283808,1.90135 -0.510746,2.80911 -0.08781,0.35123 -0.49734,3.84402 -0.255376,4.08598 0.072,0.072 0.998662,-0.005 1.021498,0 2.150165,0.43004 0.0079,0.004 1.021495,0.51075 0.656601,0.3283 1.59584,0.37024 2.298367,0.51075 2.16063,0.43213 4.17386,-0.0439 6.128975,-1.0215 0.515027,-0.25751 0.830593,-0.17603 1.276871,-0.51074 0.564102,-0.42308 0.98456,-1.0941 1.532244,-1.53225 0.148635,-0.11891 0.376153,-0.12078 0.510749,-0.25537 1.296837,-1.29684 0.246661,-0.67374 1.276869,-1.53224 0.498226,-0.41519 1.570366,-1.315 2.042993,-1.78762 0.134594,-0.1346 0.12078,-0.37616 0.255374,-0.51075 0.385418,-0.38542 0.891452,-0.63608 1.276871,-1.0215 0.522438,-0.52244 0.620908,-1.18673 1.021495,-1.78762 0.133554,-0.20033 0.377193,-0.31041 0.510749,-0.51075 0.608613,-0.91291 1.93489,-4.017048 2.298364,-5.107475 0.203846,-0.611534 0.219726,-1.460947 0.510749,-2.042991 0.183666,-0.367332 0.274916,-1.041037 0.510749,-1.276871 0.120383,-0.120386 0.04129,0.345583 0,0.510749 -0.81915,3.276597 -0.145618,0.436853 -1.021498,3.064486 -0.54021,1.620636 -1.242115,3.215606 -1.787617,4.852102 -0.252852,0.75856 -0.219853,1.31576 -0.510747,2.043 -0.382233,0.95558 -0.16656,0.0777 -0.766122,1.27687 -0.03807,0.0761 0.06019,0.19518 0,0.25537 -0.134596,0.1346 -0.405164,0.097 -0.510749,0.25538 -0.09186,0.13778 -0.295942,2.00242 -0.255373,2.04299 0.06019,0.0602 0.179234,-0.0381 0.255373,0 0.753727,0.37686 1.24814,1.14024 1.787618,1.78762 0.0545,0.0654 -0.06019,0.19518 0,0.25537 0.306922,0.30692 0.873863,0.0942 1.276871,0.25538 0.111773,0.0447 0.138583,0.22617 0.255373,0.25537 1.335466,0.33387 4.566587,0.0151 5.618229,-0.51075 0.763129,-0.38156 1.854297,-1.0475 2.298366,-1.78762 0.195863,-0.32644 0.272934,-0.72423 0.510749,-1.02149 0.118907,-0.14864 0.376153,-0.12078 0.510747,-0.25538 0.733795,-0.73379 1.377727,-1.75542 2.042995,-2.55374 0.46241,-0.55489 1.06217,-0.98383 1.53224,-1.53224 0.92876,-1.08355 1.83834,-2.578664 2.55374,-3.830612 0.13356,-0.233722 0.10606,-0.542144 0.25538,-0.766122 0.20033,-0.300498 0.54051,-0.484108 0.76612,-0.766122 0.23781,-0.29727 0.24156,-0.752308 0.51075,-1.021498 0.0602,-0.06019 0.18454,0.04722 0.25537,0 1.37767,-0.918448 -0.17589,-0.07949 0.76612,-1.021496 0.99666,-0.996656 0.13715,0.05911 0.76612,-0.255373 0.33638,-0.16819 0.68512,-0.597932 1.0215,-0.766122 0.24077,-0.120385 0.54214,-0.106056 0.76612,-0.255373 0.0708,-0.04722 -0.0708,-0.208156 0,-0.255376 0.62561,-0.417068 1.65885,-0.656053 2.29837,-1.021495 1.51871,-0.867836 -0.8304,-0.293593 1.53224,-0.766123 2.21355,-0.442708 4.81736,0.246687 6.8951,0.766123 0.46156,0.11539 1.31971,0.879803 1.53225,1.021495 0.16481,0.109879 0.91089,0.400151 1.02149,0.510749 0.59638,0.596379 0.95426,1.545593 1.27687,2.298367 0.14996,0.349908 0.24156,0.752308 0.51075,1.021495 0.0602,0.06019 0.2173,-0.07614 0.25538,0 0.0761,0.152276 -0.0538,0.349237 0,0.510749 0.0381,0.114205 0.2173,0.141166 0.25537,0.255373 0.13009,0.39029 0,1.117865 0,1.532245 0,0.339886 -0.0827,1.028846 0,1.276866 0.0269,0.0808 0.25537,0.0851 0.25537,0 0,-0.12038 -0.20153,-0.1477 -0.25537,-0.25537 -0.22068,-0.441355 -0.28944,-1.089632 -0.51075,-1.532245 -0.29224,-0.584484 0.008,-1.516624 -0.25537,-2.042991 -0.50244,-1.004885 -1.05971,-2.119411 -1.53225,-3.064489 -0.2043,-0.408599 -0.8172,-0.612897 -1.02149,-1.021495 -0.0381,-0.07614 0.0602,-0.195183 0,-0.255376 -0.0602,-0.06019 -0.18455,0.04722 -0.25538,0 -0.20033,-0.133554 -0.2954,-0.403072 -0.51075,-0.510747 -0.15227,-0.07614 -0.34558,0.04129 -0.51074,0 -1.65573,-0.413932 -2.88938,-0.766122 -4.59674,-0.766122 -1.33187,0 -3.04748,-0.323469 -4.34135,0 -0.29776,0.07444 -0.47496,0.413689 -0.76613,0.510747 -1.67112,0.55704 -2.1491,1.638352 -3.31986,2.809115 -0.13459,0.134594 -0.37615,0.12078 -0.51075,0.255373 -0.13459,0.134594 -0.14116,0.358474 -0.25537,0.510749 -0.46554,0.620723 -1.04677,1.18077 -1.53225,1.787618 -0.44637,0.557972 -0.6072,1.235223 -1.02149,1.787618 -0.14446,0.192616 -0.40308,0.295399 -0.51075,0.510749 -0.0761,0.152275 0.0538,0.349234 0,0.510749 -0.30355,0.910667 -0.85611,1.712227 -1.27687,2.553737 -0.24466,0.48933 -0.16359,1.23688 -0.25537,1.78762 -0.19391,1.16346 -0.71976,3.26172 0,4.34136 0.58352,0.87529 1.61524,1.50139 2.29836,2.29836 0.35472,0.41385 0.6113,0.91795 1.0215,1.27688 0.2865,0.25068 0.69096,0.32187 1.0215,0.51074 0.51124,0.29214 2.35065,1.41763 2.80911,1.53225 4.35568,1.08892 0.93004,-0.0114 3.06449,0.25537 2.45304,0.30663 4.68071,0.24698 7.15047,0 1.44786,-0.14479 2.98773,0.28608 4.34136,-0.25537 0.57916,-0.23167 3.43765,-0.62854 3.57524,-0.76612 0.0602,-0.0602 -0.0602,-0.19519 0,-0.25538 0.24817,-0.24818 0.72946,-0.0607 1.02149,-0.25537 0.0708,-0.0472 -0.0602,-0.19519 0,-0.25538 0.0602,-0.0602 0.19518,0.0602 0.25537,0 0.0602,-0.0602 -0.0602,-0.19518 0,-0.25537 0.22324,-0.22323 0.3635,-0.069 0.51075,-0.51075 0.0851,-0.25537 0.52457,-0.76612 0.25538,-0.76612 -0.53044,0 0.48848,0.46622 0.51075,0.51075 0.25537,0.51075 -0.12769,0.38306 0,0.76612 0.30135,0.90407 0.63074,0.88612 1.27687,1.53224 0.86478,0.86479 1.60516,0.78071 2.80911,1.0215 0.52715,0.10543 0.68205,0.42532 1.27687,0.25537 1.9403,-0.55437 0.66476,-0.31698 1.78762,-0.76612 0.24993,-0.1 0.55592,-0.0872 0.76612,-0.25537 0.23967,-0.19173 0.27108,-0.57439 0.51075,-0.76612 0.2102,-0.16816 0.52535,-0.13499 0.76612,-0.25538 1.37028,-0.68514 2.85353,-2.09851 3.83061,-3.31986 0.47563,-0.59454 0.65174,-1.37743 1.0215,-2.04299 0.68574,-1.23434 1.59226,-2.33955 2.29836,-3.57524 0.50063,-0.87609 0.62842,-1.89193 1.0215,-2.80912 0.36033,-0.84078 0.58185,-0.95837 0.76612,-1.787613 0.39658,-1.784599 1.22252,-7.367879 0.76612,-9.193464 -0.58986,-2.359432 -2.57596,-4.081539 -5.10748,-3.575238 -1.76248,0.352497 -2.39173,1.625605 -3.57523,2.809116 -0.21703,0.217024 -0.58197,0.26521 -0.76613,0.510746 -1.34986,1.799815 -1.53224,3.97279 -1.53224,6.128978 0,1.336405 0.57646,1.95191 1.0215,3.064489 0.0632,0.158072 -0.0632,0.352676 0,0.510749 0.56357,1.408937 2.29749,1.532067 3.57523,1.787617 0.7238,0.14476 1.78464,0.51174 2.55374,0.25537 0.3705,-0.1235 1.25803,-0.4919 1.53225,-0.76612 0.52838,-0.52838 -0.80743,0.0207 0.25537,-0.51075 0.0761,-0.0381 0.19518,0.0602 0.25537,0 0.0602,-0.0602 -0.0602,-0.19518 0,-0.25537 0.0602,-0.0602 0.19519,0.0602 0.25538,0 0.12038,-0.120384 -0.0538,-0.349235 0,-0.510747 0.15881,-0.476425 0.31808,-0.636159 0.51075,-1.021498 0.0761,-0.152276 0,-0.680998 0,-0.510747 0,0.923258 -0.49097,1.472896 -0.76613,2.298362 -0.18679,0.56039 -0.11209,1.21451 -0.25537,1.78762 -0.18173,0.72691 -0.38422,1.28383 -0.51075,2.04299 -0.14337,0.86026 -0.34013,1.70065 -0.51074,2.55375 -0.10017,0.50082 0.084,1.02844 0,1.53224 -0.0313,0.18775 -0.21805,0.3241 -0.25538,0.51075 -0.16093,0.80463 -0.16228,3.0192 0,3.83061 0.17221,0.86105 0.42847,1.19886 0.76612,2.04299 0.0661,0.16517 0.14869,0.65944 0.25538,0.76612 0.62025,0.62026 0.37499,-0.0759 0.76612,0.51075 0.61454,0.9218 0.27502,0.0197 1.0215,0.76612 0.0602,0.0602 -0.0808,0.22846 0,0.25537 0.24226,0.0808 0.51837,-0.0619 0.76612,0 0.11679,0.0292 0.14116,0.21731 0.25537,0.25538 0.32303,0.10768 0.68563,-0.056 1.0215,0 1.39071,0.23178 2.66678,0.25537 4.08598,0.25537"
       id="path1" />
  </g>
</svg>
